<?xml version="1.0" standalone="no"?>
<!DOCTYPE svg PUBLIC "-//W3C//DTD SVG 20010904//EN"
 "http://www.w3.org/TR/2001/REC-SVG-20010904/DTD/svg10.dtd">
<svg version="1.0" xmlns="http://www.w3.org/2000/svg"
 width="128.000000pt" height="170.000000pt" viewBox="0 0 128.000000 170.000000"
 preserveAspectRatio="xMidYMid meet">

<g transform="translate(0.000000,170.000000) scale(0.100000,-0.100000)"
fill="#000000" stroke="none">
<path d="M625 1670 c-8 -13 3 -30 18 -29 9 0 9 2 0 6 -18 7 -16 21 5 26 15 4
15 5 0 6 -9 0 -20 -3 -23 -9z"/>
<path d="M568 1653 c6 -2 18 -2 25 0 6 3 1 5 -13 5 -14 0 -19 -2 -12 -5z"/>
<path d="M721 1624 c0 -11 3 -14 6 -6 3 7 2 16 -1 19 -3 4 -6 -2 -5 -13z"/>
<path d="M554 1605 c-3 -8 -4 -20 -1 -27 3 -8 6 -6 6 5 1 10 5 16 11 12 5 -3
6 -13 3 -23 -7 -16 -5 -16 17 -1 23 15 27 14 55 -3 40 -24 49 -23 22 5 -43 42
-103 59 -113 32z"/>
<path d="M526 1587 c3 -10 9 -15 12 -12 3 3 0 11 -7 18 -10 9 -11 8 -5 -6z"/>
<path d="M520 1546 c0 -8 4 -17 9 -20 5 -4 7 3 4 14 -6 23 -13 26 -13 6z"/>
<path d="M343 1523 c9 -2 23 -2 30 0 6 3 -1 5 -18 5 -16 0 -22 -2 -12 -5z"/>
<path d="M797 1508 c2 -13 0 -28 -4 -35 -11 -15 -68 -21 -68 -7 0 12 -30 44
-41 44 -3 0 -1 -6 5 -13 6 -8 7 -18 3 -22 -4 -5 -2 -6 3 -2 6 3 11 -3 11 -14
0 -28 -12 -23 -26 11 -12 29 -30 41 -30 20 0 -5 5 -10 11 -10 5 0 7 -5 4 -11
-5 -7 -15 -5 -31 5 -28 19 -43 21 -26 4 7 -7 13 -21 13 -32 1 -17 2 -18 6 -3
5 19 19 22 29 6 4 -8 9 -7 15 2 7 11 9 10 9 -3 0 -10 -7 -18 -15 -18 -8 0 -15
5 -15 12 0 6 -6 4 -13 -6 -14 -19 -41 -14 -49 9 -2 5 -9 10 -15 11 -9 2 -10
-3 -3 -17 13 -23 7 -24 -14 -3 -15 14 -16 14 -16 0 0 -9 -7 -16 -15 -16 -8 0
-15 4 -15 10 0 5 -7 7 -15 3 -9 -3 -13 -8 -10 -11 3 -3 -2 -14 -12 -24 -13
-14 -13 -18 -2 -18 9 -1 5 -8 -10 -21 -32 -27 -65 -18 -113 29 -21 20 -38 39
-38 43 0 4 14 12 30 19 23 10 30 18 29 39 -2 23 -2 24 -6 4 -2 -13 -8 -23 -13
-23 -5 0 -7 6 -4 14 3 7 -2 16 -10 19 -12 5 -13 1 -7 -15 5 -15 1 -27 -18 -47
-25 -25 -27 -25 -45 -9 -23 21 -36 15 -28 -14 4 -16 2 -19 -9 -12 -10 6 -9 1
3 -18 12 -18 14 -28 6 -36 -9 -9 -6 -10 9 -8 29 6 69 -40 52 -60 -6 -8 -9 -17
-5 -21 3 -3 6 -2 6 4 0 6 12 10 27 9 19 -1 29 5 31 18 3 11 0 16 -7 12 -6 -4
-11 0 -11 9 0 9 -5 13 -11 10 -6 -4 -13 2 -16 14 -3 11 -9 19 -13 16 -16 -10
-22 37 -7 52 13 13 17 11 36 -16 25 -34 69 -61 100 -61 24 0 62 38 59 59 -2 8
5 17 16 19 15 3 18 -1 14 -22 -3 -14 -1 -26 3 -26 5 0 9 10 9 23 0 20 5 22 63
23 36 1 94 12 141 28 43 14 95 26 116 26 37 0 67 -21 56 -39 -3 -5 3 -7 14 -4
14 4 20 0 20 -11 0 -22 -47 -69 -60 -61 -6 3 -10 -1 -10 -9 0 -9 -4 -16 -9
-16 -16 0 -20 -28 -6 -40 10 -8 15 -8 21 1 4 8 3 9 -4 5 -7 -4 -12 -1 -12 9 0
9 5 13 10 10 6 -4 29 13 51 36 l41 43 19 -22 c20 -25 15 -56 -7 -48 -22 8 -16
-18 6 -32 25 -15 40 -8 40 18 0 10 7 23 16 28 13 7 13 13 3 35 -11 25 -14 26
-29 12 -15 -14 -18 -14 -31 1 -11 14 -10 15 6 12 10 -1 20 2 22 8 2 7 -5 10
-20 7 -14 -3 -28 1 -32 7 -5 9 -1 10 16 6 13 -3 19 -3 12 0 -7 3 -10 11 -7 18
3 7 -2 19 -11 26 -8 7 -15 9 -16 4 0 -5 -4 0 -9 11 -8 17 -8 16 -7 -7 1 -27
17 -41 17 -15 0 8 3 7 10 -3 6 -9 5 -17 -3 -22 -15 -9 -30 5 -34 34 -2 13 -8
25 -14 26 -7 3 -6 8 0 16 8 9 6 13 -5 13 -10 0 -14 -7 -11 -19 7 -25 -2 -23
-13 5 -8 20 -9 21 -10 2 l-1 -20 -9 20 c-8 19 -9 19 -9 -2 -1 -15 6 -23 22
-26 12 -2 3 -5 -21 -6 -41 -1 -43 0 -40 26 2 14 -2 28 -8 30 -7 2 -10 -5 -7
-19z m118 -56 c-8 -8 -25 10 -19 20 4 6 9 5 15 -3 4 -7 6 -15 4 -17z m-646
-59 c-14 -16 -22 -17 -16 0 2 6 0 21 -6 32 -10 20 -10 20 12 1 16 -15 18 -22
10 -33z m759 -46 c15 6 15 5 3 -11 -11 -13 -16 -14 -22 -4 -5 7 -8 18 -8 23 0
6 3 5 5 -2 3 -7 13 -9 22 -6z"/>
<path d="M420 1490 c-7 -16 -20 -30 -29 -31 -17 -1 45 -27 68 -28 15 -1 8 41
-13 71 -13 17 -14 17 -26 -12z m25 -30 c-3 -6 -1 -10 6 -10 7 0 10 -2 8 -5 -3
-2 -15 -2 -26 1 -19 5 -20 9 -11 30 10 21 13 22 20 9 5 -8 6 -20 3 -25z"/>
<path d="M478 1513 c7 -3 16 -2 19 1 4 3 -2 6 -13 5 -11 0 -14 -3 -6 -6z"/>
<path d="M753 1498 c-2 -18 0 -20 7 -8 8 13 10 13 10 1 0 -12 3 -12 12 -3 10
10 10 15 -2 22 -22 14 -26 12 -27 -12z"/>
<path d="M827 1500 c-3 -11 -1 -20 4 -20 5 0 9 9 9 20 0 11 -2 20 -4 20 -2 0
-6 -9 -9 -20z"/>
<path d="M279 1494 c-15 -18 -22 -47 -9 -39 5 3 10 1 12 -4 1 -5 9 -3 15 4 8
9 9 16 3 20 -6 3 -10 1 -10 -5 0 -6 -5 -8 -11 -5 -7 5 -4 14 7 26 9 10 15 19
12 19 -3 0 -12 -7 -19 -16z"/>
<path d="M381 1491 c-1 -20 1 -21 14 -11 16 14 21 25 6 16 -5 -4 -12 0 -14 6
-3 7 -6 2 -6 -11z"/>
<path d="M480 1486 c-7 -10 -8 -21 -3 -31 9 -15 11 -15 24 1 12 16 12 17 -3
11 -21 -7 -24 3 -6 21 7 7 9 12 6 12 -3 0 -11 -7 -18 -14z"/>
<path d="M1070 1440 c0 -12 -4 -19 -9 -16 -15 10 -22 -25 -8 -43 6 -10 21 -17
32 -15 19 3 19 2 3 -10 -23 -17 -23 -26 2 -26 11 0 20 5 20 11 0 8 5 7 15 -1
23 -19 28 -7 7 16 -9 10 -17 26 -17 34 0 8 -8 21 -17 28 -10 7 -16 17 -13 22
3 5 1 11 -5 15 -5 3 -10 -3 -10 -15z m20 -50 c0 -5 -7 -10 -16 -10 -8 0 -12 5
-9 10 3 6 10 10 16 10 5 0 9 -4 9 -10z"/>
<path d="M130 1409 c0 -5 5 -10 10 -10 6 -1 15 -3 20 -4 6 -1 15 -3 21 -4 6 0
7 -6 2 -13 -4 -7 -8 -17 -8 -23 -1 -11 -19 -12 -52 -1 -15 5 -23 3 -23 -4 0
-6 5 -8 10 -5 6 3 10 -1 10 -9 0 -9 -6 -13 -14 -10 -17 6 -40 -54 -30 -79 13
-35 33 -11 35 41 1 25 2 23 15 -17 3 -10 7 -11 19 -1 12 10 12 15 -1 35 -17
26 -3 43 16 20 16 -19 30 -19 30 1 0 9 5 12 12 8 6 -4 8 -3 4 4 -3 5 -1 12 6
14 9 3 9 6 0 12 -7 4 -12 2 -12 -4 0 -6 -5 -8 -10 -5 -8 5 -7 11 1 21 10 13
15 12 33 -3 16 -14 16 -12 -3 9 -13 15 -28 25 -32 22 -5 -3 -9 -2 -9 3 0 4
-11 9 -25 9 -14 1 -25 -2 -25 -7z m53 -74 c-3 -9 -8 -14 -10 -11 -3 3 -2 9 2
15 9 16 15 13 8 -4z"/>
<path d="M110 1380 c0 -8 25 -20 41 -20 20 0 7 18 -16 22 -14 3 -25 2 -25 -2z"/>
<path d="M548 1373 c7 -3 16 -2 19 1 4 3 -2 6 -13 5 -11 0 -14 -3 -6 -6z"/>
<path d="M720 1373 c0 -6 -10 -9 -22 -7 -21 4 -21 4 -3 -5 20 -9 45 3 32 16
-4 3 -7 2 -7 -4z"/>
<path d="M519 1351 c-167 -54 -331 -241 -373 -424 -53 -228 37 -472 221 -598
24 -17 41 -34 38 -39 -3 -5 0 -12 6 -16 8 -4 9 -3 5 4 -10 17 -6 16 70 -20 93
-44 183 -46 261 -5 56 29 79 35 50 13 -10 -8 -14 -17 -9 -20 9 -5 27 21 24 35
-2 12 78 70 88 64 6 -4 9 -3 8 2 -2 5 18 33 43 63 62 74 94 127 118 197 11 32
20 52 21 45 0 -7 5 -10 11 -6 8 5 8 8 0 13 -8 5 -8 33 -3 92 5 46 5 100 1 119
-4 19 -7 56 -5 82 2 26 -1 45 -5 42 -5 -3 -7 -17 -4 -32 5 -27 5 -27 -5 -3 -6
14 -8 31 -5 38 2 8 1 11 -4 8 -12 -7 -24 31 -15 46 4 8 3 9 -4 5 -6 -3 -16 3
-23 15 -9 17 -8 24 2 31 11 8 10 9 -3 4 -21 -6 -42 26 -27 41 7 7 1 16 -18 27
l-28 17 23 -20 c12 -11 19 -22 14 -25 -5 -3 -19 9 -32 26 -12 17 -17 27 -10
23 9 -6 11 -4 6 4 -5 7 -11 10 -14 7 -7 -8 -43 25 -37 34 3 4 -3 14 -13 21
-15 13 -16 12 -3 -3 19 -26 8 -22 -43 12 -80 55 -155 82 -231 86 -38 2 -82 0
-96 -5z m74 -38 c6 -33 1 -43 -21 -42 -11 0 -12 3 -4 6 15 6 16 53 1 53 -6 0
-8 -9 -4 -22 6 -18 5 -20 -5 -11 -15 14 -6 43 14 43 7 0 16 -12 19 -27z m37
-9 c0 -19 -4 -33 -8 -30 -8 5 -4 66 4 66 2 0 4 -16 4 -36z m68 8 c2 -7 -2 -10
-12 -6 -9 3 -16 1 -16 -5 0 -6 5 -11 10 -11 6 0 10 -7 10 -15 0 -9 -9 -15 -22
-14 -20 0 -21 1 -5 8 17 6 17 8 4 20 -9 7 -13 19 -10 27 6 17 34 15 41 -4z
m-189 -35 c-1 -31 -1 -31 -9 -7 -11 36 -11 52 0 45 6 -3 10 -21 9 -38z m27 18
c9 -37 0 -40 -13 -5 -6 17 -7 30 -2 30 5 0 11 -11 15 -25z m-61 -5 c3 -5 -1
-10 -9 -10 -9 0 -16 -5 -16 -11 0 -5 3 -8 8 -6 4 3 13 -1 20 -9 11 -12 10 -15
-2 -20 -22 -8 -36 4 -36 30 0 33 21 49 35 26z m281 -26 c2 -20 0 -23 -11 -14
-7 6 -11 20 -8 31 7 25 15 17 19 -17z m-31 16 c3 -5 1 -10 -4 -10 -6 0 -11 5
-11 10 0 6 2 10 4 10 3 0 8 -4 11 -10z m-294 -31 c6 -12 9 -32 6 -45 -2 -13 0
-24 5 -24 5 0 6 -6 2 -12 -4 -8 -3 -10 2 -5 5 5 9 14 9 20 0 22 96 61 149 61
102 0 257 -111 329 -234 33 -57 57 -148 57 -217 0 -192 -207 -453 -359 -453
-60 0 -174 56 -245 121 -99 90 -146 200 -146 341 0 132 64 275 157 345 22 17
30 29 22 33 -8 6 -8 9 0 14 19 12 13 35 -8 29 -21 -5 -35 11 -27 32 8 22 34
18 47 -6z m389 4 c0 -15 -2 -16 -10 -3 -5 8 -12 12 -15 8 -10 -9 17 -46 37
-51 23 -6 35 12 17 24 -11 7 -10 9 4 9 22 0 22 -26 -1 -54 -14 -19 -20 -21
-30 -10 -6 7 -12 17 -12 23 0 5 -8 7 -19 4 -10 -3 -22 1 -27 8 -5 9 -2 11 9 6
14 -5 15 -1 10 23 -5 26 -2 30 16 30 13 0 21 -6 21 -17z m-90 -3 c0 -5 -5 -10
-11 -10 -5 0 -7 5 -4 10 3 6 8 10 11 10 2 0 4 -4 4 -10z m-340 -63 c0 -6 -9
-2 -20 8 -22 20 -26 14 -10 -16 14 -26 -2 -24 -18 2 -10 16 -11 24 -1 35 10
13 14 12 30 -2 11 -10 19 -22 19 -27z m530 -2 c10 -12 8 -19 -8 -40 -11 -14
-23 -22 -26 -16 -3 5 1 14 9 21 8 7 15 17 15 23 0 5 -9 2 -20 -8 -26 -23 -34
-15 -14 13 18 26 27 27 44 7z m-585 -25 c15 -16 16 -22 5 -35 -10 -12 -16 -13
-26 -4 -8 6 -11 16 -8 21 4 6 10 5 15 -3 5 -8 9 -9 9 -3 0 6 -7 17 -15 24 -12
10 -15 10 -15 0 0 -8 -3 -11 -6 -7 -7 7 4 27 15 27 4 0 16 -9 26 -20z m593
-45 c-3 -29 -18 -34 -18 -7 0 17 8 32 17 32 1 0 2 -11 1 -25z m29 3 c-3 -8 -6
-5 -6 6 -1 11 2 17 5 13 3 -3 4 -12 1 -19z m-657 -3 c19 -23 8 -26 -19 -4 -16
13 -18 19 -8 19 8 0 20 -7 27 -15z m690 -8 c0 -7 -13 -21 -30 -30 -37 -23 -39
-14 -2 18 32 29 32 29 32 12z m-705 -17 c10 -11 13 -20 8 -20 -6 0 -16 7 -23
15 -7 9 -15 13 -18 10 -3 -3 3 -15 14 -27 12 -14 14 -18 4 -13 -30 17 -39 27
-33 41 7 20 27 17 48 -6z m705 -25 c0 -2 -10 -10 -22 -16 -21 -11 -22 -11 -9
4 13 16 31 23 31 12z m-742 -17 c17 -17 15 -48 -3 -48 -8 0 -15 8 -15 18 0 10
-5 23 -12 30 -9 9 -9 12 3 12 8 0 20 -5 27 -12z m752 -18 c0 -5 7 -7 15 -4 8
4 15 1 15 -5 0 -6 -5 -11 -11 -11 -6 0 -9 -7 -5 -15 3 -8 1 -15 -4 -15 -6 0
-10 4 -10 10 0 5 -7 7 -15 4 -8 -4 -15 -1 -15 5 0 6 4 11 10 11 5 0 7 7 4 15
-4 8 -1 15 5 15 6 0 11 -4 11 -10z m-767 -36 c19 -7 21 -13 7 -34 -7 -12 -12
-12 -34 0 -14 7 -24 15 -22 17 2 3 14 0 25 -7 28 -14 27 3 -1 24 -13 9 -16 14
-8 11 8 -3 23 -8 33 -11z m827 -29 c10 -12 10 -19 2 -27 -9 -9 -12 -8 -12 6 0
24 -22 15 -37 -15 -14 -26 -14 -25 -18 8 -1 12 1 20 5 18 4 -3 13 2 20 10 16
19 24 19 40 0z m-862 -67 c-5 -14 -38 19 -38 38 0 10 6 8 21 -7 11 -11 19 -25
17 -31z m35 -15 c-5 -14 -8 -14 -11 -2 -3 7 -11 28 -19 44 l-14 30 25 -28 c16
-17 23 -33 19 -44z m847 12 c0 -9 -6 -12 -15 -9 -11 5 -13 2 -9 -10 3 -9 2
-16 -4 -16 -6 0 -17 -3 -26 -6 -9 -3 -16 -1 -16 5 0 6 8 12 18 12 16 1 16 2 0
6 -27 7 -21 21 10 26 15 2 30 5 35 6 4 0 7 -6 7 -14z m-884 -30 c-3 -8 -1 -15
4 -15 6 0 10 -5 10 -11 0 -5 -4 -7 -10 -4 -5 3 -10 1 -10 -4 0 -6 -5 -11 -11
-11 -6 0 -9 7 -5 15 3 10 -1 15 -12 16 -16 1 -16 2 1 6 9 2 17 9 17 14 0 5 5
9 11 9 6 0 9 -7 5 -15z m884 -35 c0 -5 -16 -10 -35 -10 -19 0 -35 5 -35 10 0
6 16 10 35 10 19 0 35 -4 35 -10z m-863 -51 c1 -14 0 -17 -3 -6 -3 9 -10 17
-15 17 -5 0 -9 5 -9 11 0 22 25 2 27 -22z m-48 5 c-12 -15 -11 -16 10 -9 16 5
21 4 17 -4 -9 -14 -33 -14 -41 -1 -8 12 2 30 17 30 6 0 5 -7 -3 -16z m911 -4
c0 -12 -27 -12 -55 0 -16 7 -13 9 18 9 20 1 37 -3 37 -9z m-42 -50 c12 0 13
-3 5 -11 -16 -16 -33 -2 -32 24 1 17 2 18 6 5 2 -10 12 -18 21 -18z m39 14 c3
-8 0 -21 -7 -27 -10 -10 -12 -8 -7 6 4 11 1 17 -9 17 -8 0 -12 5 -9 10 9 15
25 12 32 -6z m-857 -31 c0 -7 -7 -13 -15 -13 -8 0 -15 5 -15 11 0 5 5 7 10 4
6 -3 10 -1 10 4 0 13 -37 15 -44 2 -4 -5 -1 -12 4 -14 6 -3 5 -4 -2 -3 -23 5
-14 30 12 36 25 6 40 -4 40 -27z m850 -35 c0 -10 1 -10 -37 4 -18 7 -33 16
-33 20 0 9 69 -15 70 -24z m-840 2 c0 -5 -8 -10 -18 -10 -10 0 -23 -5 -29 -11
-8 -8 -13 -8 -18 0 -3 6 0 13 7 15 7 3 20 7 28 9 24 8 30 8 30 -3z m804 -15
c20 -9 34 -20 31 -25 -4 -6 -10 -8 -15 -5 -5 3 -11 1 -14 -4 -7 -10 -46 -3
-46 9 0 5 10 6 22 2 14 -3 19 -2 14 6 -4 7 -14 12 -22 12 -8 0 -14 5 -14 10 0
13 1 13 44 -5z m-804 -25 c-20 -13 -53 -13 -45 0 3 6 18 10 33 10 21 0 24 -2
12 -10z m28 -45 c3 -18 2 -19 -8 -2 -6 9 -15 15 -21 12 -5 -4 -9 -1 -9 5 0 20
35 6 38 -15z m767 11 c27 -19 13 -48 -22 -44 -31 3 -44 35 -21 49 18 12 21 11
43 -5z m-817 -8 c-2 -7 3 -12 10 -10 6 1 12 -3 12 -9 0 -17 -34 -5 -38 14 -2
9 1 17 7 17 6 0 10 -6 9 -12z m802 -66 c-1 -19 -18 -32 -36 -26 -19 7 -19 7 0
-14 11 -12 14 -22 8 -22 -6 0 -14 5 -18 11 -4 8 -9 7 -15 -2 -7 -11 -12 -10
-26 5 -17 18 -17 18 0 13 9 -4 17 -2 17 3 0 6 -4 10 -10 10 -5 0 -10 5 -10 12
0 9 3 9 12 0 7 -7 16 -12 20 -12 12 0 10 38 -2 45 -5 3 -10 10 -10 15 0 5 16
0 35 -11 19 -12 35 -24 35 -27z m-758 19 c11 6 22 8 25 6 3 -3 -9 -12 -25 -21
-25 -13 -31 -13 -35 -2 -3 8 -3 17 1 21 4 3 8 2 10 -4 3 -8 10 -8 24 0z m30
-63 c-6 -6 -7 0 -4 19 5 21 7 23 10 9 2 -10 0 -22 -6 -28z m-22 6 c0 -8 -4
-12 -10 -9 -5 3 -10 10 -10 16 0 5 5 9 10 9 6 0 10 -7 10 -16z m57 -44 c-13
-33 -32 -42 -22 -10 4 11 2 20 -4 20 -6 0 -11 -5 -11 -12 0 -6 -3 -8 -7 -4 -9
9 24 36 43 36 9 0 10 -7 1 -30z m617 -3 c8 -14 8 -20 -4 -27 -20 -13 -23 -12
-45 4 -24 17 -13 49 16 44 12 -2 27 -11 33 -21z m-592 -26 c-9 -16 -20 -27
-24 -25 -9 6 22 53 34 54 4 0 0 -13 -10 -29z m508 9 c-11 -21 -8 -24 23 -21
11 2 17 -5 17 -18 0 -21 -17 -37 -28 -26 -3 3 0 10 8 15 11 7 8 10 -12 10 -30
0 -38 26 -16 48 17 17 20 15 8 -8z m-475 -20 c-24 -26 -11 -39 15 -15 26 23
26 11 0 -22 -11 -14 -20 -21 -20 -14 0 6 -7 11 -16 11 -9 0 -13 5 -10 13 3 6
9 20 12 30 4 9 13 17 22 17 13 0 12 -3 -3 -20z m465 -67 c0 -7 -2 -13 -5 -13
-6 0 -35 56 -35 67 1 13 40 -41 40 -54z m-389 37 c19 -11 19 -12 2 -40 -19
-33 -40 -42 -23 -11 17 34 11 47 -11 21 -11 -14 -18 -18 -15 -10 3 8 9 23 12
33 7 20 9 20 35 7z m64 -50 c-4 -11 -2 -20 4 -20 6 0 11 -5 11 -11 0 -6 -7 -9
-15 -5 -8 3 -15 1 -15 -4 0 -6 -8 -10 -17 -10 -13 0 -14 3 -5 12 8 8 9 15 1
25 -9 10 -8 13 5 13 9 0 16 5 16 10 0 6 5 10 11 10 6 0 8 -9 4 -20z m255 10
c0 -5 8 -7 18 -4 13 5 14 4 3 -4 -7 -5 -11 -14 -7 -20 3 -6 2 -13 -4 -17 -5
-3 -10 -2 -10 4 0 6 -7 8 -15 5 -8 -4 -15 -1 -15 5 0 6 4 11 10 11 5 0 7 7 4
15 -4 8 -1 15 5 15 6 0 11 -4 11 -10z m-59 -52 l-11 -33 5 33 c3 21 0 32 -8
32 -8 0 -7 4 3 10 20 12 23 -1 11 -42z m-147 5 c-8 -32 -24 -55 -24 -32 0 26
12 59 21 59 5 0 6 -12 3 -27z m96 -24 c-10 -24 -10 -24 -5 4 4 18 1 27 -7 27
-9 0 -8 3 2 10 19 12 24 -8 10 -41z m-47 30 c-9 -9 -8 -15 3 -26 17 -18 10
-33 -17 -33 -24 0 -25 27 -2 52 9 10 19 18 22 18 3 0 0 -5 -6 -11z"/>
<path d="M400 1246 c0 -9 5 -16 10 -16 6 0 10 4 10 9 0 6 -4 13 -10 16 -5 3
-10 -1 -10 -9z"/>
<path d="M561 1139 c-7 -12 -10 -24 -7 -27 3 -3 6 0 6 6 0 7 11 12 25 12 14 0
25 5 25 11 0 5 -5 7 -11 3 -6 -3 -14 -2 -18 4 -4 7 -11 4 -20 -9z"/>
<path d="M398 1131 c-64 -50 -129 -168 -141 -256 -3 -22 -3 -32 -1 -22 8 25
32 21 36 -5 2 -15 9 -22 21 -22 9 1 17 -2 17 -7 0 -5 -6 -9 -12 -9 -7 0 5 -11
27 -24 22 -12 39 -28 38 -34 -2 -7 2 -12 7 -12 15 0 12 11 -7 32 -21 23 -9 36
14 16 10 -9 23 -13 30 -11 8 3 13 -12 16 -44 3 -26 2 46 0 161 -3 114 -8 219
-12 233 l-6 24 -27 -20z m-30 -126 c-3 -13 -1 -22 3 -19 5 3 9 0 9 -5 0 -6 6
-11 14 -11 10 0 13 -13 10 -52 -1 -32 2 -56 9 -60 7 -4 -17 -8 -52 -8 -50 0
-61 3 -53 13 5 6 9 31 8 55 -2 32 1 42 13 43 10 0 6 4 -8 10 -18 7 -21 12 -12
23 6 7 8 16 4 19 -3 4 1 7 10 7 10 0 15 -7 12 -20 -2 -11 0 -20 6 -20 5 0 9
11 9 25 0 14 5 25 11 25 7 0 9 -10 7 -25z m42 -9 c0 -11 -19 -15 -25 -6 -3 5
1 10 9 10 9 0 16 -2 16 -4z"/>
<path d="M669 1143 c-1 -5 0 -19 1 -32 1 -16 -2 -21 -11 -16 -8 5 -10 4 -5 -3
14 -23 27 -11 24 23 -2 32 -6 46 -9 28z"/>
<path d="M797 1086 c2 -38 -2 -66 -7 -66 -6 0 -10 -7 -10 -15 0 -7 -8 -19 -17
-24 -10 -6 -13 -11 -6 -11 6 0 19 10 27 22 15 21 16 17 16 -66 0 -78 -2 -87
-17 -84 -13 2 -22 -7 -30 -31 -15 -43 -8 -55 7 -15 11 28 12 28 26 10 8 -11
14 -36 15 -55 0 -32 1 -33 9 -14 9 22 13 22 84 16 91 -7 95 -2 79 94 -16 89
-61 179 -124 247 l-54 58 2 -66z m63 -112 c0 -3 -5 -15 -11 -26 -9 -17 -13
-18 -20 -7 -15 23 -10 39 11 39 11 0 20 -3 20 -6z m64 -2 c2 -4 -2 -15 -9 -25
-13 -18 -14 -18 -24 1 -6 11 -7 22 -4 26 9 8 31 8 37 -2z m-60 -74 c-6 -10 -5
-10 8 -1 20 17 30 6 15 -18 -8 -13 -15 -15 -24 -7 -16 13 -17 38 -2 38 5 0 7
-6 3 -12z m6 -78 c0 -4 -7 -13 -16 -21 -13 -10 -17 -10 -25 2 -14 22 -11 27
16 27 14 0 25 -4 25 -8z m78 -10 c-4 -20 -32 -19 -36 2 -2 12 3 16 18 15 13
-1 20 -7 18 -17z"/>
<path d="M601 1104 c0 -11 3 -14 6 -6 3 7 2 16 -1 19 -3 4 -6 -2 -5 -13z"/>
<path d="M540 1090 c0 -5 5 -10 10 -10 6 0 10 5 10 10 0 6 -4 10 -10 10 -5 0
-10 -4 -10 -10z"/>
<path d="M694 1083 c5 -9 -1 -13 -19 -13 -15 0 -24 -4 -20 -10 8 -13 42 -13
51 1 3 6 1 16 -6 22 -10 9 -11 9 -6 0z"/>
<path d="M566 1063 c-6 -14 -5 -15 5 -6 7 7 10 15 7 18 -3 3 -9 -2 -12 -12z"/>
<path d="M749 1023 c-13 -16 -12 -17 4 -4 9 7 17 15 17 17 0 8 -8 3 -21 -13z"/>
<path d="M605 1020 c-3 -5 -1 -10 4 -10 6 0 11 5 11 10 0 6 -2 10 -4 10 -3 0
-8 -4 -11 -10z"/>
<path d="M626 991 c-3 -4 5 -7 17 -7 18 1 22 -5 22 -29 0 -27 -3 -30 -30 -28
-16 0 -24 -1 -17 -4 6 -2 12 -9 12 -14 0 -6 -4 -7 -10 -4 -5 3 -10 -1 -10 -10
0 -17 4 -17 51 6 23 11 26 19 25 51 -1 21 3 39 8 41 6 2 -6 4 -26 5 -21 1 -39
-2 -42 -7z"/>
<path d="M610 960 c0 -5 5 -10 11 -10 5 0 7 5 4 10 -3 6 -8 10 -11 10 -2 0 -4
-4 -4 -10z"/>
<path d="M732 880 c0 -14 2 -19 5 -12 2 6 2 18 0 25 -3 6 -5 1 -5 -13z"/>
<path d="M650 850 c0 -4 9 -10 20 -13 11 -3 20 -2 20 3 0 4 -9 10 -20 13 -11
3 -20 2 -20 -3z"/>
<path d="M692 818 c-14 -14 -16 -32 -3 -23 5 3 12 -3 14 -12 3 -10 5 -3 6 15
1 36 0 37 -17 20z"/>
<path d="M517 770 c-3 -12 0 -20 8 -20 7 0 15 9 18 20 3 12 0 20 -8 20 -7 0
-15 -9 -18 -20z"/>
<path d="M271 759 c-1 -9 7 -23 17 -30 15 -12 16 -12 6 1 -6 8 -14 22 -17 30
-5 13 -6 12 -6 -1z"/>
<path d="M603 763 c9 -2 15 -8 13 -12 -3 -4 4 -7 15 -7 19 0 19 1 3 13 -10 7
-25 12 -33 12 -12 -1 -12 -2 2 -6z"/>
<path d="M251 750 c0 -8 4 -22 9 -30 12 -18 12 -2 0 25 -6 13 -9 15 -9 5z"/>
<path d="M360 751 c0 -7 -5 -9 -12 -5 -7 5 -8 3 -3 -5 5 -9 10 -10 18 -2 6 6
8 14 4 18 -4 3 -7 1 -7 -6z"/>
<path d="M731 748 c-1 -10 -8 -18 -16 -18 -9 0 -15 -9 -14 -22 0 -22 1 -22 9
-3 6 14 9 15 10 5 1 -9 5 -5 11 9 5 13 8 29 5 35 -2 6 -5 3 -5 -6z"/>
<path d="M780 707 l5 -52 3 44 c2 24 0 47 -5 52 -4 4 -6 -15 -3 -44z"/>
<path d="M513 716 c2 -32 21 -46 30 -22 4 10 1 13 -8 10 -8 -4 -15 3 -18 18
-4 17 -5 16 -4 -6z"/>
<path d="M901 728 c-1 -9 -9 -19 -18 -21 -17 -4 -17 -5 -1 -6 12 -1 15 -6 11
-18 -5 -15 -3 -15 14 2 11 11 17 22 13 25 -4 3 -10 12 -13 20 -4 12 -6 12 -6
-2z"/>
<path d="M650 716 c0 -9 4 -16 9 -16 10 0 27 -39 23 -53 -1 -5 2 -6 7 -2 6 3
10 -8 9 -30 -1 -19 2 -38 5 -42 4 -3 7 14 7 39 0 28 -6 50 -15 58 -8 7 -15 18
-15 25 0 7 -7 18 -15 25 -12 10 -15 10 -15 -4z"/>
<path d="M351 704 c0 -11 3 -14 6 -6 3 7 2 16 -1 19 -3 4 -6 -2 -5 -13z"/>
<path d="M380 716 c0 -2 7 -7 16 -10 8 -3 12 -2 9 4 -6 10 -25 14 -25 6z"/>
<path d="M296 697 c4 -11 0 -23 -10 -30 -16 -12 -16 -13 3 -13 27 0 33 19 15
43 -13 17 -14 17 -8 0z"/>
<path d="M801 627 c1 -45 3 -74 6 -65 2 9 14 19 26 21 l22 4 -22 2 c-21 1 -23
6 -23 56 0 30 4 55 9 55 5 0 11 -4 13 -9 2 -5 8 -3 14 3 9 10 6 13 -17 14
l-29 1 1 -82z"/>
<path d="M260 690 c0 -5 5 -10 11 -10 5 0 7 5 4 10 -3 6 -8 10 -11 10 -2 0 -4
-4 -4 -10z"/>
<path d="M450 555 c4 -74 11 -130 17 -136 9 -9 11 -7 6 10 -3 11 0 27 6 35 18
21 16 112 -3 141 -9 13 -16 36 -16 50 0 14 -3 25 -7 25 -5 0 -6 -56 -3 -125z"/>
<path d="M854 656 c-8 -8 -7 -15 0 -22 8 -8 15 -7 22 0 8 8 7 15 0 22 -8 8
-15 7 -22 0z"/>
<path d="M395 650 c3 -5 8 -10 11 -10 2 0 4 5 4 10 0 6 -5 10 -11 10 -5 0 -7
-4 -4 -10z"/>
<path d="M520 652 c0 -17 21 -25 31 -13 5 6 6 9 3 6 -4 -3 -13 0 -21 6 -9 8
-13 8 -13 1z"/>
<path d="M733 646 c4 -10 7 -26 7 -37 0 -22 18 -26 26 -5 3 8 -5 25 -17 37
-17 17 -21 18 -16 5z"/>
<path d="M343 612 c10 -10 14 -22 10 -27 -5 -4 -2 -5 5 -1 11 6 10 12 -4 27
-9 10 -19 19 -22 19 -3 0 2 -8 11 -18z"/>
<path d="M620 595 c-48 -33 -62 -46 -56 -52 9 -9 96 47 96 62 0 18 2 19 -40
-10z"/>
<path d="M887 607 c-3 -9 0 -21 8 -27 11 -9 16 -6 25 11 9 17 9 20 0 14 -7 -4
-16 -2 -20 5 -5 9 -9 8 -13 -3z"/>
<path d="M730 544 c0 -19 9 -53 20 -76 11 -22 17 -46 13 -52 -3 -6 6 0 20 13
22 20 27 32 26 70 -1 30 -3 36 -6 19 -5 -34 -10 -34 -39 -7 -18 17 -21 26 -14
39 7 13 6 20 -5 24 -12 4 -15 -3 -15 -30z"/>
<path d="M406 507 c3 -10 9 -15 12 -12 3 3 0 11 -7 18 -10 9 -11 8 -5 -6z"/>
<path d="M700 420 c-13 -8 -12 -10 3 -10 9 0 17 5 17 10 0 12 -1 12 -20 0z"/>
<path d="M980 590 c0 -5 11 -10 25 -10 14 0 25 5 25 10 0 6 -11 10 -25 10 -14
0 -25 -4 -25 -10z"/>
<path d="M970 530 c0 -5 5 -10 11 -10 5 0 7 5 4 10 -3 6 -8 10 -11 10 -2 0 -4
-4 -4 -10z"/>
<path d="M886 453 c-3 -3 -3 -10 0 -14 7 -12 44 -12 44 0 0 10 -36 21 -44 14z"/>
<path d="M590 260 c0 -5 5 -10 10 -10 6 0 10 5 10 10 0 6 -4 10 -10 10 -5 0
-10 -4 -10 -10z"/>
<path d="M204 1315 c-9 -13 -12 -30 -8 -36 5 -9 2 -10 -9 -6 -20 8 -30 -7 -22
-33 8 -26 19 -25 33 3 9 19 10 17 5 -14 -6 -42 6 -54 33 -34 17 13 18 14 2 15
-27 0 -22 41 9 70 22 21 23 26 9 28 -9 2 -14 7 -11 12 3 4 -2 10 -10 14 -9 3
-21 -4 -31 -19z"/>
<path d="M1098 1323 c-10 -2 -18 -8 -18 -13 0 -4 -13 -13 -30 -20 -31 -13 -34
-18 -24 -44 11 -29 34 -18 34 15 0 26 2 29 14 20 11 -10 17 -6 29 19 9 16 15
29 14 29 -1 -1 -10 -3 -19 -6z"/>
<path d="M1140 1310 c0 -5 5 -10 11 -10 5 0 7 5 4 10 -3 6 -8 10 -11 10 -2 0
-4 -4 -4 -10z"/>
<path d="M921 1274 c0 -11 3 -14 6 -6 3 7 2 16 -1 19 -3 4 -6 -2 -5 -13z"/>
<path d="M970 1271 c0 -7 -6 -11 -14 -8 -8 3 -13 0 -12 -6 2 -16 36 -64 36
-52 0 6 5 2 11 -8 7 -12 17 -16 31 -11 19 6 20 3 15 -23 -5 -25 -2 -29 18 -31
24 -2 42 23 24 33 -5 4 -7 11 -3 16 3 5 10 6 16 3 6 -4 16 -1 22 7 14 18 49
22 43 5 -3 -7 -2 -19 3 -26 13 -21 23 26 10 49 -5 11 -10 24 -9 28 5 29 -2 36
-15 17 -15 -21 -40 -25 -64 -10 -7 4 -12 4 -11 -1 1 -4 1 -21 0 -36 -2 -44
-31 -33 -58 21 -1 2 -10 -1 -21 -7 -27 -14 -48 7 -24 25 9 7 14 16 9 20 -4 4
-7 2 -7 -5z"/>
<path d="M122 1228 c-7 -7 -11 -23 -11 -37 1 -18 3 -20 6 -8 2 9 9 15 14 12 5
-4 9 5 9 19 0 30 -1 31 -18 14z"/>
<path d="M59 1205 c0 -5 -2 -19 -4 -30 -13 -72 -14 -95 -5 -100 6 -4 10 13 10
44 0 35 4 51 13 51 7 0 13 -9 13 -20 0 -11 -4 -20 -9 -20 -5 0 -4 -6 2 -14 7
-8 8 -17 3 -20 -5 -3 -8 -35 -7 -71 1 -73 -9 -86 -19 -24 -10 60 -17 43 -9
-22 3 -29 8 -48 11 -41 4 13 23 17 21 5 -1 -5 0 -10 1 -13 1 -3 4 -25 6 -50 6
-79 9 -90 19 -93 14 -3 19 83 6 96 -7 7 -11 56 -11 119 0 85 3 108 14 108 7 0
16 9 19 21 5 17 3 18 -9 8 -18 -15 -23 -10 -26 28 -1 18 -6 29 -11 26 -5 -3
-13 1 -18 8 -5 8 -9 10 -10 4z"/>
<path d="M163 1183 c-15 -6 -17 -63 -3 -63 6 0 13 6 16 14 9 23 0 53 -13 49z"/>
<path d="M1132 1185 c10 -10 -10 -45 -25 -45 -7 0 -18 -9 -25 -20 -7 -12 -16
-18 -21 -16 -5 3 -11 -3 -14 -14 -6 -24 6 -26 24 -4 12 14 14 14 19 -2 6 -16
7 -16 13 -1 4 10 2 17 -5 17 -7 0 -6 5 2 15 17 21 30 9 30 -27 0 -52 12 -23
15 36 2 35 -1 59 -9 63 -6 3 -8 3 -4 -2z"/>
<path d="M1171 1051 c-1 -57 1 -102 4 -99 9 9 12 162 4 183 -4 12 -8 -24 -8
-84z"/>
<path d="M125 1073 c1 -16 -2 -33 -7 -40 -5 -6 -5 -14 0 -17 5 -3 8 -19 6 -36
-6 -47 12 -35 27 18 15 52 13 83 -5 94 -19 13 -23 9 -21 -19z"/>
<path d="M180 1085 c0 -8 2 -15 4 -15 2 0 6 7 10 15 3 8 1 15 -4 15 -6 0 -10
-7 -10 -15z"/>
<path d="M1143 1025 c0 -8 4 -12 9 -9 5 3 6 10 3 15 -9 13 -12 11 -12 -6z"/>
<path d="M1127 993 c-15 -14 -4 -93 12 -93 6 0 5 41 -1 88 -2 14 -2 14 -11 5z"/>
<path d="M121 924 c0 -11 3 -14 6 -6 3 7 2 16 -1 19 -3 4 -6 -2 -5 -13z"/>
<path d="M1115 880 c-3 -6 -3 -20 0 -31 5 -16 10 -18 18 -10 9 9 8 14 -2 20
-7 5 -10 14 -7 20 4 6 5 11 2 11 -3 0 -8 -5 -11 -10z"/>
<path d="M1162 870 c0 -14 2 -19 5 -12 2 6 2 18 0 25 -3 6 -5 1 -5 -13z"/>
<path d="M57 849 c4 -13 8 -18 11 -10 2 7 -1 18 -6 23 -8 8 -9 4 -5 -13z"/>
<path d="M1150 801 c0 -25 6 -27 13 -6 4 8 2 17 -3 20 -6 4 -10 -3 -10 -14z"/>
<path d="M65 791 c-3 -5 -1 -12 5 -16 5 -3 10 1 10 9 0 18 -6 21 -15 7z"/>
<path d="M102 761 c-10 -6 -10 -10 3 -21 13 -11 15 -9 15 9 0 24 0 24 -18 12z"/>
<path d="M1111 744 c0 -11 3 -14 6 -6 3 7 2 16 -1 19 -3 4 -6 -2 -5 -13z"/>
<path d="M1141 734 c0 -11 3 -14 6 -6 3 7 2 16 -1 19 -3 4 -6 -2 -5 -13z"/>
<path d="M81 724 c0 -11 3 -14 6 -6 3 7 2 16 -1 19 -3 4 -6 -2 -5 -13z"/>
<path d="M86 687 c3 -10 9 -15 12 -12 3 3 0 11 -7 18 -10 9 -11 8 -5 -6z"/>
<path d="M1131 684 c0 -11 3 -14 6 -6 3 7 2 16 -1 19 -3 4 -6 -2 -5 -13z"/>
<path d="M116 675 c4 -8 8 -15 10 -15 2 0 4 7 4 15 0 8 -4 15 -10 15 -5 0 -7
-7 -4 -15z"/>
<path d="M1121 634 c0 -11 3 -14 6 -6 3 7 2 16 -1 19 -3 4 -6 -2 -5 -13z"/>
<path d="M95 630 c-3 -5 -1 -10 4 -10 6 0 11 5 11 10 0 6 -2 10 -4 10 -3 0 -8
-4 -11 -10z"/>
<path d="M133 618 c1 -16 5 -28 9 -28 10 0 9 9 -2 35 -8 17 -8 16 -7 -7z"/>
<path d="M1086 621 c-4 -7 -5 -15 -2 -18 9 -9 19 4 14 18 -4 11 -6 11 -12 0z"/>
<path d="M150 560 c8 -16 8 -20 -4 -20 -8 0 -17 6 -20 13 -3 6 -3 1 0 -12 3
-13 7 -29 9 -35 1 -6 6 -20 10 -31 43 -110 51 -118 89 -90 17 13 22 13 40 -3
11 -9 3 3 -18 28 -21 25 -48 53 -60 63 -11 10 -15 16 -9 12 9 -4 11 -1 7 9 -3
9 -10 16 -15 16 -5 0 -8 3 -7 8 3 15 -14 62 -23 62 -6 0 -5 -9 1 -20z m80
-154 c0 -3 -4 -8 -10 -11 -5 -3 -10 -1 -10 4 0 6 5 11 10 11 6 0 10 -2 10 -4z"/>
<path d="M1013 467 c-23 -34 -39 -65 -36 -70 3 -5 10 -4 16 2 6 6 24 11 40 11
23 0 31 7 43 35 18 43 18 45 -2 45 -8 0 -12 -4 -9 -10 3 -5 2 -10 -3 -10 -14
0 -23 28 -10 32 6 2 9 9 7 15 -2 6 -23 -17 -46 -50z m27 -7 c0 -5 -4 -10 -10
-10 -5 0 -10 5 -10 10 0 6 5 10 10 10 6 0 10 -4 10 -10z m-10 -28 c0 -5 -7 -9
-15 -9 -8 0 -12 4 -9 9 3 4 9 8 15 8 5 0 9 -4 9 -8z"/>
<path d="M1030 380 c-9 -6 -10 -10 -3 -10 6 0 15 5 18 10 8 12 4 12 -15 0z"/>
<path d="M980 355 c-11 -13 -10 -14 4 -9 9 3 16 10 16 15 0 13 -6 11 -20 -6z"/>
<path d="M861 310 c-13 -11 -18 -20 -12 -20 7 0 10 -4 7 -9 -3 -5 1 -14 9 -21
8 -7 13 -16 10 -20 -6 -10 33 -50 50 -50 8 0 17 5 20 10 3 6 -1 10 -9 10 -9 0
-16 5 -16 12 0 6 -7 20 -17 30 -12 13 -13 18 -3 18 9 0 8 6 -4 19 -10 11 -15
25 -11 30 9 15 3 13 -24 -9z"/>
<path d="M351 284 c-13 -14 -21 -27 -17 -31 3 -4 -2 -15 -11 -26 -13 -15 -14
-18 -3 -12 11 6 10 3 -3 -12 -9 -11 -14 -23 -10 -26 8 -9 53 32 53 48 0 6 5
16 12 23 14 14 21 49 10 56 -4 2 -18 -7 -31 -20z"/>
<path d="M712 224 c-35 -15 -150 -25 -154 -12 -2 4 -14 9 -27 10 -21 3 -26 -2
-32 -32 -9 -44 -6 -47 22 -19 16 16 20 17 16 6 -4 -9 -10 -24 -13 -32 -3 -8
-1 -15 5 -15 6 0 11 5 11 10 0 6 5 10 11 10 8 0 7 -5 -2 -16 -10 -13 -10 -17
2 -24 10 -7 16 -3 21 10 10 27 20 25 16 -2 -2 -15 2 -23 12 -23 9 0 18 -13 21
-30 l6 -30 2 33 c0 18 5 31 9 28 5 -3 21 7 37 22 16 15 33 26 37 25 5 -2 8 2
8 8 0 5 6 7 13 4 6 -4 4 0 -5 7 -15 13 -15 15 2 26 10 6 18 21 17 32 -1 11 -1
20 -2 19 0 0 -15 -7 -33 -15z m-57 -34 c3 -5 1 -10 -4 -10 -6 0 -11 5 -11 10
0 6 2 10 4 10 3 0 8 -4 11 -10z m15 -51 c0 -6 -4 -7 -10 -4 -5 3 -10 11 -10
16 0 6 5 7 10 4 6 -3 10 -11 10 -16z"/>
<path d="M374 178 c-4 -6 -2 -14 4 -16 7 -2 10 -7 7 -12 -3 -4 1 -10 8 -13 8
-3 14 1 14 9 0 8 -4 14 -9 14 -5 0 -7 4 -3 9 3 5 1 12 -4 15 -5 4 -13 1 -17
-6z"/>
<path d="M849 173 c-11 -15 -11 -16 1 -6 9 8 19 9 32 2 14 -7 18 -6 18 6 0 21
-34 19 -51 -2z"/>
<path d="M816 163 c-6 -14 -5 -15 5 -6 7 7 10 15 7 18 -3 3 -9 -2 -12 -12z"/>
<path d="M421 134 c0 -11 3 -14 6 -6 3 7 2 16 -1 19 -3 4 -6 -2 -5 -13z"/>
<path d="M566 65 c-3 -8 -1 -15 4 -15 6 0 10 7 10 15 0 8 -2 15 -4 15 -2 0 -6
-7 -10 -15z"/>
</g>
</svg>
